#!OML:ASF E:\pregnant2\Project 1\Capture day 1\Session 1\pregnant2.ASF
:FULLY-SPECIFIED
:DEGREES
1307
root 3.36406 16.7499 8.12651 -309.951 56.256 8.12666
lowerback -20.7514 -0.395432 -3.79464
upperback -18.1384 1.109 -3.14964
thorax -8.53139 1.30115 -1.26697
lowerneck -16.6478 -12.2137 -15.2254
upperneck 30.2442 -16.1052 9.35243
head 15.5354 -7.3512 3.30338
rclavicle 1.18525e-014 -2.38542e-015
rhumerus -79.0167 38.5822 -118.539
rradius 73.0959
rwrist -4.30719
rhand -4.25496 -14.7211
rfingers 7.12502
rthumb 21.5091 -43.5468
lclavicle 1.18525e-014 -2.38542e-015
lhumerus -90.2988 -46.3346 127.667
lradius 73.2244
lwrist -1.35703
lhand -9.02357 28.4224
lfingers 7.12502
lthumb 16.9237 57.705
rfemur -64.0616 -2.91805 17.9519
rtibia 46.4798
rfoot -27.5302 -29.7503
rtoes 15.8287
lfemur -63.0039 4.24065 -39.0159
ltibia 35.5034
lfoot -13.8983 37.0306
ltoes 8.85684
1308
root 3.342 16.7515 8.15773 -309.802 55.6473 8.1872
lowerback -20.7974 -0.455373 -3.92613
upperback -18.2134 1.04535 -3.12552
thorax -8.605 1.2844 -1.17857
lowerneck -16.686 -12.2161 -15.2334
upperneck 30.2029 -16.0957 9.3328
head 15.5212 -7.35175 3.29523
rclavicle 4.72114e-015 -7.55382e-015
rhumerus -79.282 38.0629 -118.718
rradius 73.8095
rwrist -7.38806
rhand -3.39738 -14.7752
rfingers 7.12502
rthumb 22.3325 -43.5045
lclavicle 4.72114e-015 -7.55382e-015
lhumerus -90.7266 -45.9178 127.586
lradius 74.1872
lwrist 0.57256
lhand -9.26239 28.9529
lfingers 7.12502
lthumb 16.6939 58.2551
rfemur -64.2789 -2.81842 17.8083
rtibia 46.4873
rfoot -27.2669 -29.3734
rtoes 15.1649
lfemur -63.1143 4.19914 -38.972
ltibia 35.4964
lfoot -13.9596 37.5148
ltoes 9.29716
1309
root 3.31964 16.7566 8.19134 -309.729 55.0126 8.23004
lowerback -20.8379 -0.529557 -4.09304
upperback -18.2385 0.9642 -3.07342
thorax -8.62104 1.26111 -1.03908
lowerneck -16.7931 -12.2381 -15.2202
upperneck 30.2202 -16.0967 9.25278
head 15.5421 -7.35849 3.25324
rclavicle 4.07012e-014 5.08889e-014
rhumerus -79.8184 37.8696 -119.107
rradius 74.8844
rwrist -11.0608
rhand -3.89485 -15.2464
rfingers 7.12502
rthumb 21.8549 -44.0322
lclavicle 4.07012e-014 5.08889e-014
lhumerus -91.0143 -45.4452 127.281
lradius 75.4096
lwrist 2.98784
lhand -9.46017 29.69
lfingers 7.12502
lthumb 16.5034 59.0081
rfemur -64.4265 -2.72003 17.6831
rtibia 46.4768
rfoot -26.9989 -28.9855
rtoes 14.5923
lfemur -63.1526 4.20671 -38.9252
ltibia 35.4954
lfoot -14.0933 37.9709
ltoes 9.81558
1310
root 3.29527 16.7588 8.22631 -309.583 54.334 8.36482
lowerback -20.8855 -0.615551 -4.33533
upperback -18.2514 0.877269 -3.06726
thorax -8.61996 1.23947 -0.90817
lowerneck -16.7889 -12.1875 -15.2252
upperneck 29.9696 -16.049 9.38716
head 15.4316 -7.32837 3.31734
rclavicle 3.43649e-014 -1.19271e-015
rhumerus -80.0073 37.453 -119.102
rradius 75.86
rwrist -13.0205
rhand -3.59999 -15.4501
rfingers 7.12502
rthumb 22.138 -44.2026
lclavicle 3.43649e-014 -1.19271e-015
lhumerus -91.1944 -45.0475 126.836
lradius 76.6556
lwrist 5.3304
lhand -9.35719 30.1885
lfingers 7.12502
lthumb 16.6026 59.4983
rfemur -64.5879 -2.62651 17.4934
rtibia 46.4928
rfoot -26.8132 -28.5582
rtoes 14.1165
lfemur -63.1719 4.19834 -38.9451
ltibia 35.4634
lfoot -14.1749 38.4574
ltoes 10.3177
1311
root 3.27165 16.7643 8.26147 -309.433 53.6771 8.54327
lowerback -20.9432 -0.734987 -4.69195
upperback -18.2537 0.766041 -3.001
thorax -8.60419 1.22226 -0.650594
lowerneck -16.7696 -12.1766 -15.2585
upperneck 29.8302 -16.0275 9.41902
head 15.3659 -7.32379 3.33877
rclavicle -1.57537e-014 -2.22639e-014
rhumerus -80.309 37.1119 -119.015
rradius 76.8999
rwrist -13.9137
rhand -3.37083 -15.7358
rfingers 7.12502
rthumb 22.358 -44.4621
lclavicle -1.57537e-014 -2.22639e-014
lhumerus -91.3505 -44.6147 126.42
lradius 78.1068
lwrist 8.34939
lhand -8.89062 31.2246
lfingers 7.12502
lthumb 17.0517 60.4962
rfemur -64.6894 -2.51419 17.2474
rtibia 46.5045
rfoot -26.7719 -28.1213
rtoes 13.7442
lfemur -63.1187 4.12717 -38.9239
ltibia 35.3955
lfoot -14.248 38.9904
ltoes 10.7769
1312
root 3.24805 16.7722 8.29791 -309.253 53.0644 8.83139
lowerback -20.8896 -0.892181 -5.01418
upperback -18.2634 0.588445 -2.98299
thorax -8.64972 1.16353 -0.475854
lowerneck -16.7631 -12.1112 -15.2074
upperneck 29.6992 -15.9581 9.47476
head 15.2925 -7.28624 3.36846
rclavicle -2.28851e-014 -1.66979e-014
rhumerus -80.5228 36.7609 -119.087
rradius 77.576
rwrist -13.4003
rhand -3.44326 -15.4921
rfingers 7.12502
rthumb 22.2885 -44.2267
lclavicle -2.28851e-014 -1.66979e-014
lhumerus -91.6847 -44.1944 126.008
lradius 79.5356
lwrist 11.8848
lhand -9.40712 31.4218
lfingers 7.12502
lthumb 16.5545 60.7357
rfemur -64.7328 -2.49117 17.0175
rtibia 46.5309
rfoot -26.6315 -27.786
rtoes 13.3218
lfemur -62.9603 4.03245 -38.9376
ltibia 35.2821
lfoot -14.2021 39.4596
ltoes 11.194
1313
root 3.22212 16.7822 8.33668 -309.179 52.4098 9.04234
lowerback -20.7817 -1.01406 -5.39659
upperback -18.2851 0.461531 -2.95682
thorax -8.7399 1.13946 -0.253802
lowerneck -16.6736 -12.0756 -15.2054
upperneck 29.5927 -15.9231 9.5068
head 15.2208 -7.27406 3.392
rclavicle 1.48343e-014 2.90226e-014
rhumerus -80.8397 36.4309 -119.016
rradius 78.3084
rwrist -12.1869
rhand -3.82054 -15.262
rfingers 7.12502
rthumb 21.9263 -44.0395
lclavicle 1.48343e-014 2.90226e-014
lhumerus -91.9267 -43.801 125.532
lradius 80.9768
lwrist 15.0019
lhand -8.88824 31.9184
lfingers 7.12502
lthumb 17.054 61.1898
rfemur -64.7357 -2.34646 16.7563
rtibia 46.5521
rfoot -26.5172 -27.5118
rtoes 13.1038
lfemur -62.7537 3.97781 -38.8982
ltibia 35.1396
lfoot -14.3244 39.9556
ltoes 11.8844
1314
root 3.19503 16.7931 8.37638 -309.089 51.8136 9.28711
lowerback -20.588 -1.14725 -5.73149
upperback -18.3632 0.305111 -2.958
thorax -8.94039 1.09776 -0.0956488
lowerneck -16.519 -12.0222 -15.1725
upperneck 29.5637 -15.8812 9.5202
head 15.1641 -7.25905 3.40952
rclavicle -3.12837e-014 2.10712e-014
rhumerus -81.094 35.8682 -118.968
rradius 78.7889
rwrist -10.2616
rhand -4.26917 -14.9367
rfingers 7.12502
rthumb 21.4955 -43.764
lclavicle -3.12837e-014 2.10712e-014
lhumerus -92.3226 -43.4104 125.161
lradius 82.3147
lwrist 17.865
lhand -8.35785 32.4217
lfingers 7.12502
lthumb 17.5645 61.6483
rfemur -64.7069 -2.17197 16.4668
rtibia 46.583
rfoot -26.4896 -27.2979
rtoes 12.9843
lfemur -62.5255 3.94787 -38.8881
ltibia 34.98
lfoot -14.3949 40.3427
ltoes 12.5826
1315
root 3.16639 16.8037 8.41546 -308.991 51.2287 9.52836
lowerback -20.4688 -1.31792 -6.09005
upperback -18.3983 0.107665 -2.90674
thorax -9.04794 1.03861 0.132114
lowerneck -16.3791 -11.9743 -15.2371
upperneck 29.5384 -15.8248 9.56158
head 15.1243 -7.24462 3.45594
rclavicle -9.67833e-014 2.70347e-014
rhumerus -81.2771 35.5819 -118.723
rradius 79.2592
rwrist -8.55
rhand -4.54299 -14.4031
rfingers 7.12502
rthumb 21.2325 -43.2602
lclavicle -9.67833e-014 2.70347e-014
lhumerus -92.5927 -42.9678 124.651
lradius 83.6194
lwrist 20.525
lhand -7.61349 32.7769
lfingers 7.12502
lthumb 18.2807 61.9379
rfemur -64.6934 -1.93218 16.1296
rtibia 46.6021
rfoot -26.4659 -27.1862
rtoes 12.9552
lfemur -62.3379 3.9273 -38.89
ltibia 34.854
lfoot -14.4808 40.7435
ltoes 13.1905
1316
root 3.13516 16.8111 8.45389 -308.861 50.6217 9.67061
lowerback -20.4456 -1.47431 -6.49118
upperback -18.4655 -0.0526864 -2.83606
thorax -9.14834 1.00852 0.408643
lowerneck -16.2998 -11.9042 -15.1692
upperneck 29.5193 -15.7246 9.48087
head 15.0646 -7.21016 3.43826
rclavicle 7.37988e-015 8.05078e-014
rhumerus -81.2033 35.2985 -118.216
rradius 79.6642
rwrist -7.40558
rhand -3.98177 -13.7038
rfingers 7.12502
rthumb 21.7715 -42.4993
lclavicle 7.37988e-015 8.05078e-014
lhumerus -92.857 -42.6392 124.22
lradius 84.7812
lwrist 23.2767
lhand -6.63577 33.1154
lfingers 7.12502
lthumb 19.2211 62.1856
rfemur -64.8234 -1.55474 15.7434
rtibia 46.6337
rfoot -26.5028 -27.1025
rtoes 13.054
lfemur -62.3224 3.91243 -38.883
ltibia 34.7802
lfoot -14.3563 41.1906
ltoes 13.4453
